<mxfile host="app.diagrams.net" modified="2023-04-17T20:31:39.038Z" agent="Mozilla/5.0 (X11; Linux x86_64) AppleWebKit/537.36 (KHTML, like Gecko) Chrome/112.0.0.0 Safari/537.36" etag="MDGwt_Ooa3CKB6m8cQRN" version="21.1.8" type="github">
  <diagram id="C5RBs43oDa-KdzZeNtuy" name="Page-1">
    <mxGraphModel dx="1390" dy="775" grid="1" gridSize="10" guides="1" tooltips="1" connect="1" arrows="1" fold="1" page="1" pageScale="1" pageWidth="827" pageHeight="1169" math="0" shadow="0">
      <root>
        <mxCell id="WIyWlLk6GJQsqaUBKTNV-0" />
        <mxCell id="WIyWlLk6GJQsqaUBKTNV-1" parent="WIyWlLk6GJQsqaUBKTNV-0" />
        <mxCell id="WgLkz0VPnlXgDAIemnv1-10" style="edgeStyle=orthogonalEdgeStyle;rounded=0;orthogonalLoop=1;jettySize=auto;html=1;entryX=0.5;entryY=0;entryDx=0;entryDy=0;" edge="1" parent="WIyWlLk6GJQsqaUBKTNV-1" source="WgLkz0VPnlXgDAIemnv1-0" target="WgLkz0VPnlXgDAIemnv1-2">
          <mxGeometry relative="1" as="geometry">
            <mxPoint x="210" y="90" as="targetPoint" />
            <Array as="points">
              <mxPoint x="130" y="140" />
              <mxPoint x="230" y="140" />
            </Array>
          </mxGeometry>
        </mxCell>
        <mxCell id="WgLkz0VPnlXgDAIemnv1-11" style="edgeStyle=orthogonalEdgeStyle;rounded=0;orthogonalLoop=1;jettySize=auto;html=1;entryX=0;entryY=0.5;entryDx=0;entryDy=0;" edge="1" parent="WIyWlLk6GJQsqaUBKTNV-1" source="WgLkz0VPnlXgDAIemnv1-0" target="WgLkz0VPnlXgDAIemnv1-1">
          <mxGeometry relative="1" as="geometry" />
        </mxCell>
        <mxCell id="WgLkz0VPnlXgDAIemnv1-12" style="edgeStyle=orthogonalEdgeStyle;rounded=0;orthogonalLoop=1;jettySize=auto;html=1;entryX=0;entryY=0.5;entryDx=0;entryDy=0;" edge="1" parent="WIyWlLk6GJQsqaUBKTNV-1" source="WgLkz0VPnlXgDAIemnv1-0" target="WgLkz0VPnlXgDAIemnv1-3">
          <mxGeometry relative="1" as="geometry" />
        </mxCell>
        <mxCell id="WgLkz0VPnlXgDAIemnv1-16" style="edgeStyle=orthogonalEdgeStyle;rounded=0;orthogonalLoop=1;jettySize=auto;html=1;entryX=0;entryY=0.5;entryDx=0;entryDy=0;" edge="1" parent="WIyWlLk6GJQsqaUBKTNV-1" source="WgLkz0VPnlXgDAIemnv1-0" target="WgLkz0VPnlXgDAIemnv1-4">
          <mxGeometry relative="1" as="geometry" />
        </mxCell>
        <mxCell id="WgLkz0VPnlXgDAIemnv1-17" style="edgeStyle=orthogonalEdgeStyle;rounded=0;orthogonalLoop=1;jettySize=auto;html=1;entryX=0;entryY=0.5;entryDx=0;entryDy=0;" edge="1" parent="WIyWlLk6GJQsqaUBKTNV-1" source="WgLkz0VPnlXgDAIemnv1-0" target="WgLkz0VPnlXgDAIemnv1-5">
          <mxGeometry relative="1" as="geometry" />
        </mxCell>
        <mxCell id="WgLkz0VPnlXgDAIemnv1-18" style="edgeStyle=orthogonalEdgeStyle;rounded=0;orthogonalLoop=1;jettySize=auto;html=1;entryX=0;entryY=0.5;entryDx=0;entryDy=0;" edge="1" parent="WIyWlLk6GJQsqaUBKTNV-1" source="WgLkz0VPnlXgDAIemnv1-0" target="WgLkz0VPnlXgDAIemnv1-6">
          <mxGeometry relative="1" as="geometry" />
        </mxCell>
        <mxCell id="WgLkz0VPnlXgDAIemnv1-19" style="edgeStyle=orthogonalEdgeStyle;rounded=0;orthogonalLoop=1;jettySize=auto;html=1;entryX=0;entryY=0.5;entryDx=0;entryDy=0;" edge="1" parent="WIyWlLk6GJQsqaUBKTNV-1" source="WgLkz0VPnlXgDAIemnv1-0" target="WgLkz0VPnlXgDAIemnv1-7">
          <mxGeometry relative="1" as="geometry" />
        </mxCell>
        <mxCell id="WgLkz0VPnlXgDAIemnv1-20" style="edgeStyle=orthogonalEdgeStyle;rounded=0;orthogonalLoop=1;jettySize=auto;html=1;entryX=0;entryY=0.5;entryDx=0;entryDy=0;" edge="1" parent="WIyWlLk6GJQsqaUBKTNV-1" source="WgLkz0VPnlXgDAIemnv1-0" target="WgLkz0VPnlXgDAIemnv1-8">
          <mxGeometry relative="1" as="geometry" />
        </mxCell>
        <mxCell id="WgLkz0VPnlXgDAIemnv1-21" style="edgeStyle=orthogonalEdgeStyle;rounded=0;orthogonalLoop=1;jettySize=auto;html=1;entryX=0;entryY=0.5;entryDx=0;entryDy=0;" edge="1" parent="WIyWlLk6GJQsqaUBKTNV-1" source="WgLkz0VPnlXgDAIemnv1-0" target="WgLkz0VPnlXgDAIemnv1-9">
          <mxGeometry relative="1" as="geometry" />
        </mxCell>
        <mxCell id="WgLkz0VPnlXgDAIemnv1-0" value="Pages" style="whiteSpace=wrap;html=1;aspect=fixed;" vertex="1" parent="WIyWlLk6GJQsqaUBKTNV-1">
          <mxGeometry x="90" y="40" width="80" height="80" as="geometry" />
        </mxCell>
        <mxCell id="WgLkz0VPnlXgDAIemnv1-49" style="edgeStyle=orthogonalEdgeStyle;rounded=0;orthogonalLoop=1;jettySize=auto;html=1;entryX=0;entryY=0.5;entryDx=0;entryDy=0;" edge="1" parent="WIyWlLk6GJQsqaUBKTNV-1" source="WgLkz0VPnlXgDAIemnv1-1" target="WgLkz0VPnlXgDAIemnv1-48">
          <mxGeometry relative="1" as="geometry" />
        </mxCell>
        <mxCell id="WgLkz0VPnlXgDAIemnv1-50" style="edgeStyle=orthogonalEdgeStyle;rounded=0;orthogonalLoop=1;jettySize=auto;html=1;entryX=0;entryY=0.5;entryDx=0;entryDy=0;" edge="1" parent="WIyWlLk6GJQsqaUBKTNV-1" source="WgLkz0VPnlXgDAIemnv1-1" target="WgLkz0VPnlXgDAIemnv1-47">
          <mxGeometry relative="1" as="geometry" />
        </mxCell>
        <mxCell id="WgLkz0VPnlXgDAIemnv1-1" value="Authentication" style="rounded=0;whiteSpace=wrap;html=1;" vertex="1" parent="WIyWlLk6GJQsqaUBKTNV-1">
          <mxGeometry x="170" y="230" width="120" height="60" as="geometry" />
        </mxCell>
        <mxCell id="WgLkz0VPnlXgDAIemnv1-2" value="Home" style="rounded=0;whiteSpace=wrap;html=1;" vertex="1" parent="WIyWlLk6GJQsqaUBKTNV-1">
          <mxGeometry x="170" y="160" width="120" height="60" as="geometry" />
        </mxCell>
        <mxCell id="WgLkz0VPnlXgDAIemnv1-3" value="Customized Solutions" style="rounded=0;whiteSpace=wrap;html=1;" vertex="1" parent="WIyWlLk6GJQsqaUBKTNV-1">
          <mxGeometry x="170" y="300" width="120" height="60" as="geometry" />
        </mxCell>
        <mxCell id="WgLkz0VPnlXgDAIemnv1-4" value="How It Works" style="rounded=0;whiteSpace=wrap;html=1;" vertex="1" parent="WIyWlLk6GJQsqaUBKTNV-1">
          <mxGeometry x="170" y="370" width="120" height="60" as="geometry" />
        </mxCell>
        <mxCell id="WgLkz0VPnlXgDAIemnv1-51" style="edgeStyle=orthogonalEdgeStyle;rounded=0;orthogonalLoop=1;jettySize=auto;html=1;entryX=0;entryY=0.5;entryDx=0;entryDy=0;" edge="1" parent="WIyWlLk6GJQsqaUBKTNV-1" source="WgLkz0VPnlXgDAIemnv1-5" target="WgLkz0VPnlXgDAIemnv1-46">
          <mxGeometry relative="1" as="geometry" />
        </mxCell>
        <mxCell id="WgLkz0VPnlXgDAIemnv1-52" style="edgeStyle=orthogonalEdgeStyle;rounded=0;orthogonalLoop=1;jettySize=auto;html=1;entryX=0;entryY=0.5;entryDx=0;entryDy=0;" edge="1" parent="WIyWlLk6GJQsqaUBKTNV-1" source="WgLkz0VPnlXgDAIemnv1-5" target="WgLkz0VPnlXgDAIemnv1-43">
          <mxGeometry relative="1" as="geometry" />
        </mxCell>
        <mxCell id="WgLkz0VPnlXgDAIemnv1-53" style="edgeStyle=orthogonalEdgeStyle;rounded=0;orthogonalLoop=1;jettySize=auto;html=1;entryX=0.5;entryY=0;entryDx=0;entryDy=0;" edge="1" parent="WIyWlLk6GJQsqaUBKTNV-1" source="WgLkz0VPnlXgDAIemnv1-5" target="WgLkz0VPnlXgDAIemnv1-45">
          <mxGeometry relative="1" as="geometry">
            <Array as="points">
              <mxPoint x="350" y="470" />
              <mxPoint x="350" y="280" />
              <mxPoint x="620" y="280" />
            </Array>
          </mxGeometry>
        </mxCell>
        <mxCell id="WgLkz0VPnlXgDAIemnv1-54" style="edgeStyle=orthogonalEdgeStyle;rounded=0;orthogonalLoop=1;jettySize=auto;html=1;entryX=0.575;entryY=0.017;entryDx=0;entryDy=0;entryPerimeter=0;" edge="1" parent="WIyWlLk6GJQsqaUBKTNV-1" source="WgLkz0VPnlXgDAIemnv1-5" target="WgLkz0VPnlXgDAIemnv1-44">
          <mxGeometry relative="1" as="geometry">
            <Array as="points">
              <mxPoint x="350" y="470" />
              <mxPoint x="350" y="280" />
              <mxPoint x="769" y="280" />
            </Array>
          </mxGeometry>
        </mxCell>
        <mxCell id="WgLkz0VPnlXgDAIemnv1-55" style="edgeStyle=orthogonalEdgeStyle;rounded=0;orthogonalLoop=1;jettySize=auto;html=1;entryX=0;entryY=0.5;entryDx=0;entryDy=0;" edge="1" parent="WIyWlLk6GJQsqaUBKTNV-1" source="WgLkz0VPnlXgDAIemnv1-5" target="WgLkz0VPnlXgDAIemnv1-40">
          <mxGeometry relative="1" as="geometry">
            <Array as="points">
              <mxPoint x="360" y="480" />
              <mxPoint x="360" y="480" />
            </Array>
          </mxGeometry>
        </mxCell>
        <mxCell id="WgLkz0VPnlXgDAIemnv1-56" style="edgeStyle=orthogonalEdgeStyle;rounded=0;orthogonalLoop=1;jettySize=auto;html=1;" edge="1" parent="WIyWlLk6GJQsqaUBKTNV-1" source="WgLkz0VPnlXgDAIemnv1-5" target="WgLkz0VPnlXgDAIemnv1-42">
          <mxGeometry relative="1" as="geometry">
            <Array as="points">
              <mxPoint x="540" y="470" />
              <mxPoint x="540" y="410" />
            </Array>
          </mxGeometry>
        </mxCell>
        <mxCell id="WgLkz0VPnlXgDAIemnv1-5" value="Recruiter" style="rounded=0;whiteSpace=wrap;html=1;" vertex="1" parent="WIyWlLk6GJQsqaUBKTNV-1">
          <mxGeometry x="170" y="440" width="120" height="60" as="geometry" />
        </mxCell>
        <mxCell id="WgLkz0VPnlXgDAIemnv1-58" style="edgeStyle=orthogonalEdgeStyle;rounded=0;orthogonalLoop=1;jettySize=auto;html=1;entryX=0;entryY=0.5;entryDx=0;entryDy=0;" edge="1" parent="WIyWlLk6GJQsqaUBKTNV-1" source="WgLkz0VPnlXgDAIemnv1-6" target="WgLkz0VPnlXgDAIemnv1-39">
          <mxGeometry relative="1" as="geometry" />
        </mxCell>
        <mxCell id="WgLkz0VPnlXgDAIemnv1-60" style="edgeStyle=orthogonalEdgeStyle;rounded=0;orthogonalLoop=1;jettySize=auto;html=1;entryX=0;entryY=0.5;entryDx=0;entryDy=0;" edge="1" parent="WIyWlLk6GJQsqaUBKTNV-1" source="WgLkz0VPnlXgDAIemnv1-6" target="WgLkz0VPnlXgDAIemnv1-36">
          <mxGeometry relative="1" as="geometry" />
        </mxCell>
        <mxCell id="WgLkz0VPnlXgDAIemnv1-61" style="edgeStyle=orthogonalEdgeStyle;rounded=0;orthogonalLoop=1;jettySize=auto;html=1;entryX=0;entryY=0.5;entryDx=0;entryDy=0;" edge="1" parent="WIyWlLk6GJQsqaUBKTNV-1" source="WgLkz0VPnlXgDAIemnv1-6" target="WgLkz0VPnlXgDAIemnv1-59">
          <mxGeometry relative="1" as="geometry" />
        </mxCell>
        <mxCell id="WgLkz0VPnlXgDAIemnv1-6" value="Candidate" style="rounded=0;whiteSpace=wrap;html=1;" vertex="1" parent="WIyWlLk6GJQsqaUBKTNV-1">
          <mxGeometry x="170" y="510" width="120" height="60" as="geometry" />
        </mxCell>
        <mxCell id="WgLkz0VPnlXgDAIemnv1-7" value="Help and Support" style="rounded=0;whiteSpace=wrap;html=1;" vertex="1" parent="WIyWlLk6GJQsqaUBKTNV-1">
          <mxGeometry x="170" y="580" width="120" height="60" as="geometry" />
        </mxCell>
        <mxCell id="WgLkz0VPnlXgDAIemnv1-8" value="Privacy" style="rounded=0;whiteSpace=wrap;html=1;" vertex="1" parent="WIyWlLk6GJQsqaUBKTNV-1">
          <mxGeometry x="170" y="650" width="120" height="60" as="geometry" />
        </mxCell>
        <mxCell id="WgLkz0VPnlXgDAIemnv1-9" value="Terms and Conditions" style="rounded=0;whiteSpace=wrap;html=1;" vertex="1" parent="WIyWlLk6GJQsqaUBKTNV-1">
          <mxGeometry x="170" y="720" width="120" height="60" as="geometry" />
        </mxCell>
        <mxCell id="WgLkz0VPnlXgDAIemnv1-22" value="Refund" style="rounded=1;whiteSpace=wrap;html=1;" vertex="1" parent="WIyWlLk6GJQsqaUBKTNV-1">
          <mxGeometry x="290" y="720" width="120" height="60" as="geometry" />
        </mxCell>
        <mxCell id="WgLkz0VPnlXgDAIemnv1-36" value="Resume" style="rounded=1;whiteSpace=wrap;html=1;" vertex="1" parent="WIyWlLk6GJQsqaUBKTNV-1">
          <mxGeometry x="414" y="580" width="120" height="60" as="geometry" />
        </mxCell>
        <mxCell id="WgLkz0VPnlXgDAIemnv1-37" value="Assignments" style="rounded=1;whiteSpace=wrap;html=1;" vertex="1" parent="WIyWlLk6GJQsqaUBKTNV-1">
          <mxGeometry x="700" y="580" width="120" height="60" as="geometry" />
        </mxCell>
        <mxCell id="WgLkz0VPnlXgDAIemnv1-38" value="Jobs" style="rounded=1;whiteSpace=wrap;html=1;" vertex="1" parent="WIyWlLk6GJQsqaUBKTNV-1">
          <mxGeometry x="560" y="580" width="120" height="60" as="geometry" />
        </mxCell>
        <mxCell id="WgLkz0VPnlXgDAIemnv1-62" style="edgeStyle=orthogonalEdgeStyle;rounded=0;orthogonalLoop=1;jettySize=auto;html=1;entryX=0.5;entryY=0;entryDx=0;entryDy=0;" edge="1" parent="WIyWlLk6GJQsqaUBKTNV-1" source="WgLkz0VPnlXgDAIemnv1-39" target="WgLkz0VPnlXgDAIemnv1-38">
          <mxGeometry relative="1" as="geometry" />
        </mxCell>
        <mxCell id="WgLkz0VPnlXgDAIemnv1-63" style="edgeStyle=orthogonalEdgeStyle;rounded=0;orthogonalLoop=1;jettySize=auto;html=1;entryX=0.5;entryY=0;entryDx=0;entryDy=0;" edge="1" parent="WIyWlLk6GJQsqaUBKTNV-1" source="WgLkz0VPnlXgDAIemnv1-39" target="WgLkz0VPnlXgDAIemnv1-37">
          <mxGeometry relative="1" as="geometry" />
        </mxCell>
        <mxCell id="WgLkz0VPnlXgDAIemnv1-39" value="Dashboard" style="rounded=1;whiteSpace=wrap;html=1;" vertex="1" parent="WIyWlLk6GJQsqaUBKTNV-1">
          <mxGeometry x="414" y="510" width="120" height="60" as="geometry" />
        </mxCell>
        <mxCell id="WgLkz0VPnlXgDAIemnv1-40" value="Chat" style="rounded=1;whiteSpace=wrap;html=1;" vertex="1" parent="WIyWlLk6GJQsqaUBKTNV-1">
          <mxGeometry x="560" y="450" width="120" height="60" as="geometry" />
        </mxCell>
        <mxCell id="WgLkz0VPnlXgDAIemnv1-41" value="Scrrening" style="rounded=1;whiteSpace=wrap;html=1;" vertex="1" parent="WIyWlLk6GJQsqaUBKTNV-1">
          <mxGeometry x="690" y="380" width="120" height="60" as="geometry" />
        </mxCell>
        <mxCell id="WgLkz0VPnlXgDAIemnv1-42" value="Applicants" style="rounded=1;whiteSpace=wrap;html=1;" vertex="1" parent="WIyWlLk6GJQsqaUBKTNV-1">
          <mxGeometry x="560" y="380" width="130" height="60" as="geometry" />
        </mxCell>
        <mxCell id="WgLkz0VPnlXgDAIemnv1-43" value="Payment" style="rounded=1;whiteSpace=wrap;html=1;" vertex="1" parent="WIyWlLk6GJQsqaUBKTNV-1">
          <mxGeometry x="414" y="380" width="120" height="60" as="geometry" />
        </mxCell>
        <mxCell id="WgLkz0VPnlXgDAIemnv1-44" value="Jobs" style="rounded=1;whiteSpace=wrap;html=1;" vertex="1" parent="WIyWlLk6GJQsqaUBKTNV-1">
          <mxGeometry x="700" y="300" width="120" height="60" as="geometry" />
        </mxCell>
        <mxCell id="WgLkz0VPnlXgDAIemnv1-45" value="Company" style="rounded=1;whiteSpace=wrap;html=1;" vertex="1" parent="WIyWlLk6GJQsqaUBKTNV-1">
          <mxGeometry x="560" y="300" width="120" height="60" as="geometry" />
        </mxCell>
        <mxCell id="WgLkz0VPnlXgDAIemnv1-46" value="Dashboard" style="rounded=1;whiteSpace=wrap;html=1;" vertex="1" parent="WIyWlLk6GJQsqaUBKTNV-1">
          <mxGeometry x="414" y="300" width="120" height="60" as="geometry" />
        </mxCell>
        <mxCell id="WgLkz0VPnlXgDAIemnv1-47" value="Login" style="rounded=1;whiteSpace=wrap;html=1;" vertex="1" parent="WIyWlLk6GJQsqaUBKTNV-1">
          <mxGeometry x="414" y="150" width="120" height="60" as="geometry" />
        </mxCell>
        <mxCell id="WgLkz0VPnlXgDAIemnv1-48" value="SignUp for Recruiter" style="rounded=1;whiteSpace=wrap;html=1;" vertex="1" parent="WIyWlLk6GJQsqaUBKTNV-1">
          <mxGeometry x="414" y="70" width="120" height="60" as="geometry" />
        </mxCell>
        <mxCell id="WgLkz0VPnlXgDAIemnv1-59" value="Chat" style="rounded=1;whiteSpace=wrap;html=1;" vertex="1" parent="WIyWlLk6GJQsqaUBKTNV-1">
          <mxGeometry x="414" y="650" width="120" height="60" as="geometry" />
        </mxCell>
      </root>
    </mxGraphModel>
  </diagram>
</mxfile>
